<svg width="30" height="30" viewBox="0 0 30 30" fill="none" xmlns="http://www.w3.org/2000/svg">
<g clip-path="url(#clip0_0_6295)">
<path d="M23.6537 12.8364H6.34607L5.30762 17.4518H24.6922L23.6537 12.8364Z" fill="#4C9580"/>
<path d="M27.4038 3.89404H2.59617C1.16461 3.89404 0 5.05865 0 6.49016V14.8555C0 16.287 1.16461 17.4517 2.59617 17.4517H3.53367L4.80961 11.781C4.89844 11.3861 5.24912 11.1055 5.65389 11.1055H24.3462C24.7509 11.1055 25.1016 11.3861 25.1904 11.781L26.4664 17.4517H27.4039C28.8354 17.4517 30.0001 16.2871 30.0001 14.8555V6.49016C30 5.05865 28.8354 3.89404 27.4038 3.89404ZM19.6154 9.9517H18.4615C17.9836 9.9517 17.5962 9.56422 17.5962 9.08633C17.5962 8.60844 17.9837 8.22096 18.4615 8.22096H19.6154C20.0933 8.22096 20.4807 8.60844 20.4807 9.08633C20.4807 9.56422 20.0933 9.9517 19.6154 9.9517ZM23.6538 9.9517H22.5C22.0221 9.9517 21.6346 9.56422 21.6346 9.08633C21.6346 8.60844 22.0221 8.22096 22.5 8.22096H23.6538C24.1318 8.22096 24.5192 8.60844 24.5192 9.08633C24.5192 9.56422 24.1318 9.9517 23.6538 9.9517Z" fill="#4C9580"/>
<path d="M15.5769 21.3942C15.5769 21.1532 15.6219 21.0783 15.7421 20.878C15.9061 20.6048 16.1538 20.1918 16.1538 19.4713C16.1538 18.9934 15.7664 18.606 15.2885 18.606C14.8106 18.606 14.4231 18.9934 14.4231 19.4713C14.4231 19.7123 14.3782 19.7873 14.258 19.9875C14.094 20.2608 13.8462 20.6737 13.8462 21.3942C13.8462 22.1147 14.094 22.5277 14.2579 22.801C14.3781 23.0014 14.4231 23.0763 14.4231 23.3174C14.4231 23.5584 14.3782 23.6335 14.2579 23.8337C14.094 24.107 13.8462 24.5201 13.8462 25.2405C13.8462 25.7185 14.2337 26.1059 14.7116 26.1059C15.1895 26.1059 15.5769 25.7184 15.5769 25.2405C15.5769 24.9994 15.6219 24.9244 15.7421 24.7242C15.9061 24.4509 16.1538 24.0379 16.1538 23.3174C16.1538 22.5968 15.9061 22.1839 15.7421 21.9105C15.6219 21.7103 15.5769 21.6353 15.5769 21.3942Z" fill="#4C9580"/>
<path d="M10.9615 21.3942C10.9615 21.1532 11.0064 21.0783 11.1266 20.878C11.2906 20.6048 11.5384 20.1918 11.5384 19.4713C11.5384 18.9934 11.1509 18.606 10.673 18.606C10.1951 18.606 9.80763 18.9934 9.80763 19.4713C9.80763 19.7123 9.76269 19.7873 9.64251 19.9875C9.47851 20.2608 9.23071 20.6737 9.23071 21.3942C9.23071 22.1147 9.47851 22.5277 9.64245 22.801C9.76263 23.0014 9.80763 23.0763 9.80763 23.3174C9.80763 23.5584 9.76269 23.6335 9.64245 23.8337C9.47851 24.107 9.23071 24.5201 9.23071 25.2405C9.23071 25.7185 9.61819 26.1059 10.0961 26.1059C10.574 26.1059 10.9615 25.7184 10.9615 25.2405C10.9615 24.9994 11.0064 24.9244 11.1266 24.7242C11.2906 24.4509 11.5384 24.0379 11.5384 23.3174C11.5384 22.5968 11.2906 22.1839 11.1266 21.9105C11.0065 21.7103 10.9615 21.6353 10.9615 21.3942Z" fill="#4C9580"/>
<path d="M20.1922 21.3942C20.1922 21.1532 20.2371 21.0783 20.3573 20.878C20.5213 20.6048 20.7691 20.1918 20.7691 19.4713C20.7691 18.9934 20.3816 18.606 19.9037 18.606C19.4258 18.606 19.0383 18.9934 19.0383 19.4713C19.0383 19.7123 18.9934 19.7873 18.8732 19.9875C18.7092 20.2608 18.4614 20.6737 18.4614 21.3942C18.4614 22.1147 18.7092 22.5277 18.8732 22.801C18.9933 23.0014 19.0383 23.0763 19.0383 23.3174C19.0383 23.5584 18.9934 23.6335 18.8732 23.8337C18.7092 24.107 18.4614 24.5201 18.4614 25.2405C18.4614 25.7185 18.8489 26.1059 19.3268 26.1059C19.8047 26.1059 20.1922 25.7184 20.1922 25.2405C20.1922 24.9994 20.2371 24.9244 20.3573 24.7242C20.5213 24.4509 20.7691 24.0379 20.7691 23.3174C20.7691 22.5968 20.5213 22.1839 20.3573 21.9105C20.2372 21.7103 20.1922 21.6353 20.1922 21.3942Z" fill="#4C9580"/>
</g>
<defs>
<clipPath id="clip0_0_6295">
<rect width="30" height="30" fill="white"/>
</clipPath>
</defs>
</svg>
