<svg width="27" height="30" viewBox="0 0 27 30" fill="none" xmlns="http://www.w3.org/2000/svg">
<path d="M2.60911 14.9989V10.7129C2.60996 9.86057 2.94891 9.04344 3.55156 8.44078C4.15422 7.83813 4.97135 7.49918 5.82364 7.49833H9.03816C9.32225 7.49805 9.59463 7.38507 9.79552 7.18418C9.9964 6.98329 10.1094 6.71092 10.1097 6.42682V3.2123C10.1131 2.74612 10.2172 2.28617 10.4148 1.86396C10.6125 1.44174 10.899 1.06721 11.2549 0.76602C11.6107 0.464826 12.0274 0.244074 12.4765 0.118875C12.9256 -0.00632383 13.3964 -0.0330135 13.8567 0.040633C14.6183 0.186665 15.3043 0.595884 15.7946 1.19667C16.2849 1.79746 16.5483 2.55154 16.5387 3.32695V6.42682C16.539 6.71092 16.652 6.98329 16.8529 7.18418C17.0538 7.38507 17.3261 7.49805 17.6102 7.49833H20.8247C21.677 7.49918 22.4942 7.83813 23.0968 8.44078C23.6995 9.04344 24.0384 9.86057 24.0393 10.7129V14.9989H2.60911ZM24.3393 17.1419H2.30909L0.0910675 26.0054C-0.0238585 26.4793 -0.0300904 26.9731 0.0728389 27.4497C0.175768 27.9263 0.385191 28.3735 0.685428 28.7578C0.985664 29.142 1.36893 29.4533 1.80654 29.6685C2.24415 29.8836 2.72475 29.9969 3.21237 30H5.96615L6.90693 23.4188C6.94728 23.1375 7.09775 22.8837 7.32522 22.7133C7.55269 22.5429 7.83854 22.4698 8.11988 22.5102C8.40122 22.5505 8.655 22.701 8.82541 22.9284C8.99581 23.1559 9.06887 23.4418 9.02852 23.7231L8.13059 30H12.2527V23.571C12.2527 23.2868 12.3656 23.0142 12.5665 22.8133C12.7675 22.6123 13.04 22.4994 13.3242 22.4994C13.6084 22.4994 13.8809 22.6123 14.0819 22.8133C14.2828 23.0142 14.3957 23.2868 14.3957 23.571V30H18.5178L17.6209 23.7231C17.5806 23.4418 17.6536 23.1559 17.824 22.9284C17.9945 22.701 18.2482 22.5505 18.5296 22.5102C18.8109 22.4698 19.0968 22.5429 19.3242 22.7133C19.5517 22.8837 19.7022 23.1375 19.7425 23.4188L20.6822 30H23.4371C23.9245 29.9966 24.4049 29.883 24.8422 29.6678C25.2796 29.4525 25.6626 29.1411 25.9626 28.7569C26.2626 28.3727 26.4718 27.9257 26.5746 27.4492C26.6774 26.9727 26.6711 26.4791 26.5562 26.0054L24.3393 17.1419Z" fill="#4C9580"/>
</svg>
