<svg width="19" height="18" viewBox="0 0 19 18" fill="none" xmlns="http://www.w3.org/2000/svg">
<path d="M9.49992 1.5C7.42575 1.5 5.7395 3.0975 5.7395 5.0625C5.7395 6.99 7.33075 8.55 9.40492 8.6175C9.46825 8.61 9.53159 8.61 9.57909 8.6175C9.59492 8.6175 9.60284 8.6175 9.61867 8.6175C9.62659 8.6175 9.62659 8.6175 9.6345 8.6175C11.6612 8.55 13.2524 6.99 13.2603 5.0625C13.2603 3.0975 11.5741 1.5 9.49992 1.5Z" fill="#4C9580"/>
<path d="M13.5218 10.6127C11.313 9.21766 7.71092 9.21766 5.48634 10.6127C4.48092 11.2502 3.92676 12.1127 3.92676 13.0352C3.92676 13.9577 4.48092 14.8127 5.47842 15.4427C6.58676 16.1477 8.04342 16.5002 9.50009 16.5002C10.9568 16.5002 12.4134 16.1477 13.5218 15.4427C14.5193 14.8052 15.0734 13.9502 15.0734 13.0202C15.0655 12.0977 14.5193 11.2427 13.5218 10.6127Z" fill="#4C9580"/>
</svg>
