<svg width="16" height="16" viewBox="0 0 16 16" fill="none" xmlns="http://www.w3.org/2000/svg">
<path d="M11.2148 1.33301H4.78818C3.36818 1.33301 2.21484 2.49301 2.21484 3.90634V13.2997C2.21484 14.4997 3.07484 15.0063 4.12818 14.4263L7.38151 12.6197C7.72818 12.4263 8.28818 12.4263 8.62818 12.6197L11.8815 14.4263C12.9348 15.013 13.7948 14.5063 13.7948 13.2997V3.90634C13.7882 2.49301 12.6348 1.33301 11.2148 1.33301Z" stroke="#4C9580" stroke-linecap="round" stroke-linejoin="round"/>
<path d="M11.2148 1.33301H4.78818C3.36818 1.33301 2.21484 2.49301 2.21484 3.90634V13.2997C2.21484 14.4997 3.07484 15.0063 4.12818 14.4263L7.38151 12.6197C7.72818 12.4263 8.28818 12.4263 8.62818 12.6197L11.8815 14.4263C12.9348 15.013 13.7948 14.5063 13.7948 13.2997V3.90634C13.7882 2.49301 12.6348 1.33301 11.2148 1.33301Z" fill="#4C9580" stroke="#4C9580" stroke-linecap="round" stroke-linejoin="round"/>
</svg>
