<svg width="26" height="30" viewBox="0 0 26 30" fill="none" xmlns="http://www.w3.org/2000/svg">
<path d="M23.6856 4.15089L20.4324 0.897698C19.2355 -0.299233 17.2866 -0.299233 16.0897 0.897698L11.747 5.24041L15.0002 8.49361L18.2534 5.24041L23.6856 10.6726C24.5479 9.80645 25.032 8.63398 25.032 7.41176C25.032 6.18954 24.5479 5.01708 23.6856 4.15089ZM2.52449 17.7161C3.42986 18.6215 4.88766 18.6215 5.77768 17.7161L9.56796 13.9258L6.31477 10.6573L2.52449 14.4476C1.61912 15.3529 1.61912 16.8107 2.52449 17.7161Z" fill="#4C9580"/>
<path d="M17.179 8.49382L16.0895 9.58333L15 10.6728L10.1202 5.79305C9.21483 4.87234 7.75703 4.87234 6.86701 5.77771C6.65173 5.99037 6.48081 6.24366 6.36415 6.52288C6.24749 6.8021 6.18743 7.1017 6.18743 7.40431C6.18743 7.70692 6.24749 8.00651 6.36415 8.28573C6.48081 8.56495 6.65173 8.81824 6.86701 9.0309L11.7468 13.9107L10.6573 15.0002L0.897698 24.7598C-0.299233 25.9567 -0.299233 27.9056 0.897698 29.1025C2.09463 30.2994 4.04348 30.2994 5.24041 29.1025L19.3427 15.0002C19.4848 15.1423 19.6534 15.255 19.8391 15.3319C20.0247 15.4088 20.2236 15.4483 20.4246 15.4483C20.6255 15.4483 20.8244 15.4088 21.01 15.3319C21.1957 15.255 21.3643 15.1423 21.5064 15.0002C21.6485 14.8581 21.7612 14.6895 21.838 14.5039C21.9149 14.3182 21.9545 14.1193 21.9545 13.9184C21.9545 13.7175 21.9149 13.5185 21.838 13.3329C21.7612 13.1473 21.6485 12.9786 21.5064 12.8365L17.179 8.49382Z" fill="#4C9580"/>
</svg>
