<svg width="26" height="30" viewBox="0 0 26 30" fill="none" xmlns="http://www.w3.org/2000/svg">
<path d="M22.5 0H3.21429C2.3618 0 1.54424 0.338647 0.941443 0.941443C0.338647 1.54424 0 2.3618 0 3.21429V26.7857C0 27.6382 0.338647 28.4558 0.941443 29.0586C1.54424 29.6614 2.3618 30 3.21429 30H22.5C23.3525 30 24.17 29.6614 24.7728 29.0586C25.3756 28.4558 25.7143 27.6382 25.7143 26.7857V3.21429C25.7143 2.3618 25.3756 1.54424 24.7728 0.941443C24.17 0.338647 23.3525 0 22.5 0ZM18.2143 3.21429C18.4262 3.21429 18.6333 3.27712 18.8095 3.39485C18.9857 3.51258 19.1231 3.67992 19.2042 3.8757C19.2852 4.07147 19.3065 4.2869 19.2651 4.49474C19.2238 4.70258 19.1217 4.89349 18.9719 5.04333C18.8221 5.19317 18.6311 5.29521 18.4233 5.33656C18.2155 5.3779 18 5.35668 17.8043 5.27559C17.6085 5.19449 17.4412 5.05716 17.3234 4.88097C17.2057 4.70477 17.1429 4.49762 17.1429 4.28571C17.1429 4.00155 17.2557 3.72903 17.4567 3.5281C17.6576 3.32717 17.9301 3.21429 18.2143 3.21429ZM3.21429 4.28571C3.21429 4.00155 3.32717 3.72903 3.5281 3.5281C3.72903 3.32717 4.00155 3.21429 4.28571 3.21429H7.5C7.78416 3.21429 8.05668 3.32717 8.25761 3.5281C8.45855 3.72903 8.57143 4.00155 8.57143 4.28571C8.57143 4.56987 8.45855 4.8424 8.25761 5.04333C8.05668 5.24426 7.78416 5.35714 7.5 5.35714H4.28571C4.00155 5.35714 3.72903 5.24426 3.5281 5.04333C3.32717 4.8424 3.21429 4.56987 3.21429 4.28571ZM12.8571 26.7857C11.1619 26.7857 9.50468 26.283 8.09511 25.3412C6.68555 24.3993 5.58693 23.0607 4.93818 21.4944C4.28942 19.9282 4.11968 18.2048 4.45041 16.5421C4.78114 14.8794 5.59749 13.3521 6.79623 12.1534C7.99496 10.9546 9.52225 10.1383 11.1849 9.80755C12.8476 9.47682 14.5711 9.64657 16.1373 10.2953C17.7035 10.9441 19.0422 12.0427 19.984 13.4523C20.9259 14.8618 21.4286 16.519 21.4286 18.2143C21.426 20.4868 20.5221 22.6655 18.9152 24.2724C17.3083 25.8793 15.1296 26.7832 12.8571 26.7857ZM21.4286 5.35714C21.2167 5.35714 21.0095 5.2943 20.8333 5.17657C20.6571 5.05884 20.5198 4.89151 20.4387 4.69573C20.3576 4.49995 20.3364 4.28453 20.3777 4.07669C20.4191 3.86885 20.5211 3.67794 20.671 3.5281C20.8208 3.37826 21.0117 3.27621 21.2195 3.23487C21.4274 3.19353 21.6428 3.21475 21.8386 3.29584C22.0344 3.37694 22.2017 3.51427 22.3194 3.69046C22.4372 3.86666 22.5 4.07381 22.5 4.28571C22.5 4.56987 22.3871 4.8424 22.1862 5.04333C21.9853 5.24426 21.7127 5.35714 21.4286 5.35714Z" fill="#4C9580"/>
<path d="M12.8904 18.2141C11.8878 17.7092 10.7803 17.4479 9.65774 17.4512C8.53519 17.4546 7.42926 17.7225 6.42969 18.2334C6.43068 19.9384 7.10893 21.5731 8.31522 22.778C8.91252 23.3746 9.62148 23.8477 10.4016 24.1703C11.1818 24.4929 12.0178 24.6587 12.862 24.6582C13.7062 24.6577 14.5421 24.491 15.3218 24.1674C16.1016 23.8439 16.81 23.37 17.4066 22.7727C18.0032 22.1754 18.4763 21.4664 18.7989 20.6863C19.1215 19.9062 19.2873 19.0701 19.2868 18.2259C18.2933 18.7219 17.1977 18.9792 16.0872 18.9771C14.9768 18.9751 13.8821 18.7138 12.8904 18.2141Z" fill="#4C9580"/>
</svg>
