<svg width="16" height="16" viewBox="0 0 16 16" fill="none" xmlns="http://www.w3.org/2000/svg">
<path d="M7.54739 0.964187C7.72735 0.58081 8.27265 0.58081 8.45261 0.964188L10.3588 5.02479C10.4295 5.17558 10.5708 5.28122 10.7354 5.30652L15.0389 5.96794C15.441 6.02975 15.6049 6.52035 15.3207 6.81145L12.1764 10.0318C12.0655 10.1454 12.0151 10.3049 12.0406 10.4616L12.7782 14.9836C12.8454 15.3956 12.4081 15.7036 12.0428 15.5016L8.24196 13.3998C8.0914 13.3166 7.9086 13.3166 7.75804 13.3998L3.95722 15.5016C3.59194 15.7036 3.15459 15.3956 3.22178 14.9836L3.95936 10.4616C3.98492 10.3049 3.93454 10.1454 3.82363 10.0318L0.679348 6.81145C0.395122 6.52035 0.559019 6.02975 0.961143 5.96794L5.26459 5.30652C5.42923 5.28122 5.57046 5.17558 5.64125 5.02479L7.54739 0.964187Z" fill="#FCBB44"/>
</svg>
