<svg width="56" height="56" viewBox="0 0 56 56" fill="none" xmlns="http://www.w3.org/2000/svg">
<path d="M47.1081 32.8085L44.4715 28.4219C43.8881 27.4652 43.3748 25.6219 43.3748 24.5019V20.1385C43.3748 11.6685 36.4915 4.78516 28.0448 4.78516C19.5749 4.80849 12.6915 11.6685 12.6915 20.1385V24.4785C12.6915 25.5985 12.1782 27.4419 11.6182 28.3985L8.98153 32.7852C7.97819 34.4885 7.74486 36.4252 8.37486 38.1052C9.00486 39.8085 10.4282 41.1619 12.2949 41.7685C14.8149 42.6085 17.3582 43.2152 19.9482 43.6585C20.2049 43.7052 20.4615 43.7285 20.7182 43.7752C21.0449 43.8219 21.3949 43.8685 21.7449 43.9152C22.3515 44.0085 22.9582 44.0785 23.5881 44.1252C25.0581 44.2652 26.5515 44.3352 28.0448 44.3352C29.5148 44.3352 30.9848 44.2652 32.4315 44.1252C32.9681 44.0785 33.5048 44.0319 34.0181 43.9619C34.4381 43.9152 34.8581 43.8685 35.2781 43.7985C35.5348 43.7752 35.7915 43.7285 36.0481 43.6819C38.6615 43.2619 41.2515 42.6085 43.7715 41.7685C45.5681 41.1619 46.9448 39.8085 47.5981 38.0819C48.2515 36.3319 48.0648 34.4185 47.1081 32.8085ZM29.7481 23.3352C29.7481 24.3152 28.9548 25.1085 27.9748 25.1085C26.9948 25.1085 26.2015 24.3152 26.2015 23.3352V16.1018C26.2015 15.1218 26.9948 14.3285 27.9748 14.3285C28.9548 14.3285 29.7481 15.1218 29.7481 16.1018V23.3352Z" fill="#4C9580"/>
<path d="M34.6027 46.6903C33.6227 49.397 31.0327 51.3337 27.9993 51.3337C26.156 51.3337 24.336 50.587 23.0526 49.257C22.306 48.557 21.746 47.6237 21.4193 46.667C21.7226 46.7137 22.026 46.737 22.3526 46.7837C22.8893 46.8537 23.4493 46.9237 24.0093 46.9703C25.3393 47.087 26.6927 47.157 28.046 47.157C29.376 47.157 30.706 47.087 32.0127 46.9703C32.5027 46.9237 32.9927 46.9003 33.4593 46.8303C33.8327 46.7837 34.206 46.737 34.6027 46.6903Z" fill="#4C9580"/>
</svg>
