<svg width="30" height="30" viewBox="0 0 30 30" fill="none" xmlns="http://www.w3.org/2000/svg">
<g clip-path="url(#clip0_0_6276)">
<path d="M7.66935 25.4961C9.15743 25.0451 9.99817 23.4732 9.54719 21.9851C9.09621 20.497 7.52429 19.6563 6.03621 20.1073C4.54813 20.5582 3.70739 22.1302 4.15837 23.6182C4.60935 25.1063 6.18127 25.9471 7.66935 25.4961Z" fill="#4C9580"/>
<path d="M22.9951 25.6206C24.55 25.6206 25.8105 24.3601 25.8105 22.8052C25.8105 21.2503 24.55 19.9897 22.9951 19.9897C21.4402 19.9897 20.1797 21.2503 20.1797 22.8052C20.1797 24.3601 21.4402 25.6206 22.9951 25.6206Z" fill="#4C9580"/>
<path d="M29.6045 13.4679C28.7766 12.0144 27.8344 10.6292 26.7867 9.32529C26.297 8.71943 25.6803 8.22838 24.9801 7.8868C24.2799 7.54522 23.5133 7.36141 22.7344 7.34834C21.7969 7.33311 20.8729 7.32432 20.1785 7.32432H20.1715C20.0246 6.58529 19.6422 5.91379 19.0814 5.41051C18.5207 4.90723 17.8119 4.59931 17.0613 4.53291C16.0506 4.44385 12.0867 4.37939 10.1883 4.37939C8.28984 4.37939 4.32891 4.44385 3.31523 4.53291C2.50027 4.60487 1.73662 4.96133 1.15811 5.53984C0.579595 6.11836 0.223128 6.88201 0.151172 7.69697C0.0644531 8.70772 0 11.5677 0 13.4655C0 15.3634 0.0644531 18.2228 0.154102 19.2341C0.215105 19.9235 0.480018 20.5791 0.915069 21.1174C1.35012 21.6556 1.9356 22.0521 2.59687 22.2563C2.73262 21.1971 3.25884 20.2267 4.0725 19.5351C4.88617 18.8435 5.92868 18.4804 6.99594 18.5171C8.0632 18.5537 9.07835 18.9874 9.84265 19.7332C10.607 20.479 11.0654 21.4833 11.1281 22.5493C12.3996 22.5399 14.0502 22.5136 15.3252 22.4767C16.3418 22.5083 17.6057 22.5317 18.7154 22.544C18.7811 21.4756 19.2441 20.4704 20.0134 19.7261C20.7827 18.9818 21.8026 18.5521 22.8726 18.5216C23.9426 18.4911 24.9853 18.862 25.7957 19.5614C26.6061 20.2607 27.1255 21.2379 27.252 22.3009C27.9485 22.1208 28.5722 21.7293 29.0373 21.1804C29.5025 20.6315 29.7861 19.952 29.8494 19.2353C29.9268 18.3634 29.9854 16.663 30 14.9937C30.0049 14.4591 29.8684 13.9328 29.6045 13.4679ZM26.7516 14.3655H20.3777C20.3777 14.0503 20.3818 13.7474 20.3818 13.4655C20.3818 12.1577 20.3508 10.3929 20.3027 9.0915C20.9701 9.0915 21.8373 9.10088 22.708 9.11494C23.2283 9.12372 23.7403 9.24673 24.2077 9.47526C24.6752 9.70378 25.0868 10.0322 25.4133 10.4374C26.1254 11.3224 26.7853 12.2482 27.3896 13.2101C27.4616 13.3241 27.5016 13.4554 27.5055 13.5901C27.5094 13.7249 27.4771 13.8582 27.4119 13.9763C27.3467 14.0943 27.2511 14.1927 27.1349 14.2611C27.0188 14.3296 26.8864 14.3657 26.7516 14.3655Z" fill="#4C9580"/>
</g>
<defs>
<clipPath id="clip0_0_6276">
<rect width="30" height="30" fill="white"/>
</clipPath>
</defs>
</svg>
