<svg width="30" height="30" viewBox="0 0 30 30" fill="none" xmlns="http://www.w3.org/2000/svg">
<g clip-path="url(#clip0_0_6284)">
<path d="M29.7037 11.6732C30.0987 11.2782 30.0987 10.6378 29.7037 10.2427L28.1857 8.72477C27.8424 8.38147 27.3034 8.33056 26.902 8.60339L23.7103 10.7727L25.8664 7.55941C26.1357 7.15812 26.0835 6.6223 25.7417 6.28063L22.4489 2.98792C22.145 2.68393 21.6821 2.60524 21.2949 2.79182L20.7256 3.06593L20.9982 2.46107C21.171 2.07772 21.0886 1.62754 20.7913 1.33016L19.7577 0.296701C19.3628 -0.0982492 18.7223 -0.0982492 18.3273 0.296701L10.2988 8.3251L21.6753 19.7016L29.7037 11.6732Z" fill="#4C9580"/>
<path d="M8.80395 9.81982L6.47984 12.1439C6.29015 12.3336 6.18354 12.5909 6.18354 12.8591C6.18354 13.1274 6.29008 13.3847 6.47984 13.5743L8.68446 15.7789C9.10922 16.2037 9.31522 16.7899 9.24968 17.3871C9.1842 17.984 8.85567 18.5117 8.34838 18.8351C1.87031 22.9645 1.26646 23.5684 1.06807 23.7669C-0.356025 25.1909 -0.356025 27.508 1.06807 28.9322C2.49359 30.3577 4.81083 30.3549 6.23337 28.9322C6.43189 28.7337 7.03595 28.1296 11.1651 21.6519C11.4877 21.1458 12.0152 20.818 12.6123 20.7524C13.2113 20.687 13.7974 20.892 14.2212 21.3157L16.4258 23.5203C16.8208 23.9153 17.4613 23.9153 17.8562 23.5203L20.1804 21.1962L8.80395 9.81982ZM4.72364 27.2984C4.1653 27.8568 3.26009 27.8568 2.70182 27.2984C2.14348 26.7401 2.14348 25.8349 2.70182 25.2766C3.26016 24.7183 4.16537 24.7183 4.72364 25.2766C5.28197 25.8349 5.28197 26.7401 4.72364 27.2984Z" fill="#4C9580"/>
</g>
<defs>
<clipPath id="clip0_0_6284">
<rect width="30" height="30" fill="white"/>
</clipPath>
</defs>
</svg>
