<svg width="57" height="56" viewBox="0 0 57 56" fill="none" xmlns="http://www.w3.org/2000/svg">
<path d="M48.6158 19.7163C46.1658 8.93634 36.7624 4.08301 28.5024 4.08301C28.5024 4.08301 28.5024 4.08301 28.4791 4.08301C20.2424 4.08301 10.8158 8.91301 8.36575 19.693C5.63575 31.733 13.0091 41.9297 19.6824 48.3463C22.1558 50.7263 25.3291 51.9163 28.5024 51.9163C31.6758 51.9163 34.8491 50.7263 37.2991 48.3463C43.9724 41.9297 51.3458 31.7563 48.6158 19.7163ZM28.5024 31.4063C24.4424 31.4063 21.1524 28.1163 21.1524 24.0563C21.1524 19.9963 24.4424 16.7063 28.5024 16.7063C32.5624 16.7063 35.8524 19.9963 35.8524 24.0563C35.8524 28.1163 32.5624 31.4063 28.5024 31.4063Z" fill="#4C9580"/>
</svg>
