<svg width="30" height="30" viewBox="0 0 30 30" fill="none" xmlns="http://www.w3.org/2000/svg">
<g id="Frame" clip-path="url(#clip0_0_6264)">
<g id="Group">
<path id="Vector" d="M28.2089 19.5054C26.6657 17.961 24.5244 17.3068 21.7744 18.0438L11.9683 8.22766L12.0979 7.73758C12.6627 5.61848 12.0524 3.34065 10.5058 1.79401C8.93099 0.218014 6.69224 -0.360248 4.57496 0.221353C4.42659 0.262081 4.29152 0.341052 4.18325 0.450368C4.07498 0.559683 3.99732 0.695511 3.95802 0.844264C3.91885 0.992987 3.91939 1.14939 3.95958 1.29784C3.99977 1.44629 4.07821 1.58159 4.18707 1.69024L6.54822 4.05139C7.23851 4.74338 7.23177 5.85163 6.54992 6.5353C5.87345 7.21358 4.73638 7.21253 4.06261 6.537L1.70099 4.1752C1.59217 4.06633 1.45666 3.98797 1.30802 3.94796C1.15939 3.90794 1.00284 3.90769 0.854078 3.94721C0.705368 3.98677 0.569659 4.0647 0.460535 4.1732C0.35141 4.2817 0.2727 4.41696 0.232281 4.56544C-0.340824 6.65946 0.222965 8.9121 1.80529 10.4944C3.34783 12.0381 5.48644 12.6947 8.23806 11.9561L18.045 21.7722C17.3131 24.5214 17.9444 26.6419 19.5083 28.2058C21.0851 29.7838 23.3249 30.3578 25.4376 29.7781C25.5859 29.7374 25.721 29.6584 25.8293 29.5491C25.9376 29.4398 26.0153 29.3039 26.0547 29.1552C26.0939 29.0064 26.0934 28.85 26.0532 28.7015C26.013 28.5531 25.9345 28.4177 25.8256 28.3091L23.465 25.9485C22.7747 25.2565 22.7814 24.1481 23.4633 23.4646C24.1482 22.7832 25.2827 22.794 25.9506 23.4637L28.3124 25.8248C28.4212 25.9337 28.5567 26.012 28.7054 26.052C28.854 26.092 29.0105 26.0922 29.1593 26.0527C29.3079 26.0131 29.4436 25.9352 29.5527 25.8267C29.6618 25.7183 29.7405 25.583 29.781 25.4346C30.3541 23.3409 29.7904 21.0877 28.2089 19.5054Z" fill="#4C9580"/>
<path id="Vector_2" d="M9.4068 15.6202L1.02836 23.9996C-0.342788 25.3708 -0.342788 27.6005 1.02836 28.9716C2.39952 30.3428 4.62924 30.3428 6.00034 28.9716L14.3786 20.5924L9.4068 15.6202ZM5.17463 26.244C4.83127 26.5874 4.27522 26.5874 3.93186 26.244C3.58856 25.9007 3.58856 25.3446 3.93186 25.0013L9.26272 19.6694C9.60602 19.3261 10.1623 19.3261 10.5055 19.6694C10.8488 20.0127 10.8488 20.5689 10.5055 20.9122L5.17463 26.244ZM29.7415 1.77264L28.2263 0.257463C28.0877 0.118871 27.9068 0.0305727 27.7123 0.00660067C27.5178 -0.0173714 27.3208 0.0243586 27.1527 0.125158L22.4918 2.92143C22.0014 3.21563 21.9181 3.89221 22.3224 4.29657L22.6934 4.66746L16.7766 10.5601L19.263 13.0465L25.1798 7.15389L25.7024 7.6766C26.1068 8.08084 26.7834 7.99764 27.0776 7.50721L29.8738 2.84625C29.9746 2.67815 30.0163 2.4812 29.9923 2.28668C29.9683 2.09216 29.88 1.91123 29.7415 1.77264Z" fill="#4C9580"/>
</g>
</g>
<defs>
<clipPath id="clip0_0_6264">
<rect width="30" height="30" fill="white"/>
</clipPath>
</defs>
</svg>
